<svg xmlns="http://www.w3.org/2000/svg" xmlns:xlink="http://www.w3.org/1999/xlink" width="1800" height="300" viewBox="0 0 1800 300">
  <defs>
    <style>
      <![CDATA[
      .path-outline {
        /*fill: #f9b05a;*/
        fill:url(#linear-gradient);
        fill-rule: evenodd;
        /*filter: url(#grad-filter);*/
        stroke: #a1570f;
        stroke-linejoin: round;
        stroke-width: 3px;
        /*-webkit-animation: kf-dash 5s linear forwards;*/
        animation: kf-dash 5s linear forwards;
      }
      @keyframes kf-dash {
        0% {
          fill: transparent;
          stroke: transparent;
          stroke-dasharray: 2000;
          stroke-dashoffset: 2000;
        }
        0.1% {
          stroke: #484848;
        }
        60% {
          fill: transparent;
          stroke: #a1570f;
          stroke-dashoffset: 0;
        }
        80% {
          fill: #f9b05a;
          stroke: #a1570f;
          stroke-dashoffset: 0;
        }
        100% {
          fill: #de6b17;
          stroke: #a1570f;
          stroke-width: 3px;
          stroke-dashoffset: 0;
          /*filter: url(#grad-filter);*/
          /*fill: #f9b05a;*/
        }
      }

      ]]>
    </style>
    <linearGradient id="linear-gradient" x1="886.361" y1="198.312" x2="886.361">
      <stop offset="0" stop-color="#f9b05a" stop-opacity="1" />
      <stop offset="1" stop-color="#de6b17" stop-opacity="1" />
    </linearGradient>
    <mask id="masked-gradient" maskContentUnits="objectBoundingBox">
      <rect width="1772.721" height="198.312" fill="url(#linear-gradient)"/>
    </mask>
  </defs>
  <g style="fill:url(#linear-gradient);stroke: #a1570f;stroke-width: 3px;">
    <path id="logo-path-stroke" class="path-outline" d="M83.639,245.822q17.462,0,31.08-7.844t20.72-19.092h1.184v22.2H160.6V90.126H136.623v22.5h-1.184q-7.1-11.544-20.72-19.388T83.639,85.39A67.135,67.135,0,0,0,47.083,95.75a72.4,72.4,0,0,0-25.9,28.712q-9.477,18.357-9.472,41.144,0,23.088,9.472,41.292a72.59,72.59,0,0,0,25.9,28.564,67.136,67.136,0,0,0,36.556,10.36h0ZM86.6,223.03a46.089,46.089,0,0,1-24.568-7.1,51.234,51.234,0,0,1-18.5-20.276q-6.958-13.167-6.956-30.044t6.956-30.044a51.268,51.268,0,0,1,18.5-20.276,46.291,46.291,0,0,1,49.284,0,51.957,51.957,0,0,1,18.352,20.128q6.951,13.029,6.956,30.192T129.667,195.8a51.921,51.921,0,0,1-18.352,20.128,45.859,45.859,0,0,1-24.716,7.1h0Zm110.407,18.056h25.16V156.134a53.063,53.063,0,0,1,5.328-23.236,45.773,45.773,0,0,1,14.948-17.908,36.751,36.751,0,0,1,21.756-6.808q17.463,0,27.528,9.472t10.064,30.488v92.944h25.16V144.294q0-27.229-14.356-43.068T271.006,85.39A57.213,57.213,0,0,0,242,93.234q-13.617,7.846-19.832,19.092h-1.184v-22.2H197.006v150.96Zm235.613,4.736q22.2,0,39.96-10.656a74.513,74.513,0,0,0,27.676-29.008,83.937,83.937,0,0,0,9.916-40.552,83.951,83.951,0,0,0-9.916-40.552,74.547,74.547,0,0,0-27.676-29.008q-17.76-10.656-39.96-10.656t-39.96,10.656a74.519,74.519,0,0,0-27.676,29.008,83.906,83.906,0,0,0-9.916,40.552,83.892,83.892,0,0,0,9.916,40.552,74.484,74.484,0,0,0,27.676,29.008q17.76,10.656,39.96,10.656h0Zm0-22.792a51.413,51.413,0,0,1-45.436-26.936q-7.255-13.021-7.252-30.488t7.252-30.488a51.422,51.422,0,0,1,90.576,0q7.249,13.029,7.252,30.488t-7.252,30.488a51.386,51.386,0,0,1-19.24,19.98,50.717,50.717,0,0,1-25.9,6.956h0Zm106.854,18.056h25.16V156.134a53.063,53.063,0,0,1,5.328-23.236,45.764,45.764,0,0,1,14.948-17.908,36.747,36.747,0,0,1,21.756-6.808q17.462,0,27.528,9.472t10.064,30.488v92.944h25.16V144.294q0-27.229-14.356-43.068T613.473,85.39a57.207,57.207,0,0,0-29.008,7.844q-13.619,7.846-19.832,19.092h-1.184v-22.2H539.473v150.96ZM773.9,245.822q24.267,0,41.292-11.544a66.473,66.473,0,0,0,24.716-30.192l-22.5-9.472a44.265,44.265,0,0,1-17.168,21.016q-11.544,7.4-27.528,7.4a45.868,45.868,0,0,1-24.864-7.252,52.571,52.571,0,0,1-18.5-20.276q-6.958-13.022-6.956-29.9t6.956-29.9a52.642,52.642,0,0,1,18.5-20.276,45.91,45.91,0,0,1,24.864-7.252q15.685,0,26.788,7.252T816.23,136.6l22.792-9.472a62.428,62.428,0,0,0-23.828-30.34Q798.468,85.395,773.9,85.39q-21.909,0-39.368,10.36A72.036,72.036,0,0,0,707.3,124.462q-9.768,18.357-9.768,41.144t9.768,41a73.278,73.278,0,0,0,27.232,28.712Q752,245.817,773.9,245.822h0Zm162.8,0q22.2,0,39.96-10.656a74.568,74.568,0,0,0,27.681-29.008,84.034,84.034,0,0,0,9.91-40.552,84.048,84.048,0,0,0-9.91-40.552,74.6,74.6,0,0,0-27.681-29.008Q958.9,85.39,936.7,85.39t-39.96,10.656a74.519,74.519,0,0,0-27.676,29.008,83.9,83.9,0,0,0-9.916,40.552,83.881,83.881,0,0,0,9.916,40.552,74.484,74.484,0,0,0,27.676,29.008q17.76,10.656,39.96,10.656h0Zm0-22.792a51.413,51.413,0,0,1-45.436-26.936q-7.257-13.021-7.252-30.488t7.252-30.488a51.422,51.422,0,0,1,90.576,0q7.25,13.029,7.252,30.488t-7.252,30.488a51.393,51.393,0,0,1-19.24,19.98,50.717,50.717,0,0,1-25.9,6.956h0Zm106.851,18.056h25.16V156.43a55.709,55.709,0,0,1,5.18-23.828,44.881,44.881,0,0,1,14.36-17.76,33.927,33.927,0,0,1,20.42-6.66q16.575,0,25.16,9.472t8.59,30.784v92.648h25.16V155.838a54.6,54.6,0,0,1,5.18-23.68,43.959,43.959,0,0,1,14.35-17.464,34.521,34.521,0,0,1,20.43-6.512q16.875,0,25.45,9.472t8.59,30.488v92.944h24.86V144.294q0-27.229-13.17-43.068T1214.05,85.39q-17.475,0-30.64,7.992a61.655,61.655,0,0,0-21.16,21.312,44.779,44.779,0,0,0-17.61-21.312q-12.285-7.992-28.86-7.992a53.287,53.287,0,0,0-27.53,7.7q-13.035,7.7-19.54,19.24h-1.18v-22.2h-23.98v150.96Zm275.58,1.776a17.941,17.941,0,0,0,13.17-5.476,18.309,18.309,0,0,0,5.48-13.468,18.7,18.7,0,0,0-18.65-18.648,18.313,18.313,0,0,0-13.47,5.476,17.963,17.963,0,0,0-5.47,13.172,18.692,18.692,0,0,0,18.94,18.944h0Zm53.87-1.776h25.16V156.134a52.954,52.954,0,0,1,5.33-23.236,45.771,45.771,0,0,1,14.94-17.908,36.768,36.768,0,0,1,21.76-6.808q17.46,0,27.53,9.472,10.05,9.477,10.06,30.488v92.944h25.16V144.294q0-27.229-14.35-43.068Q1474.22,85.395,1447,85.39a57.212,57.212,0,0,0-29.01,7.844q-13.62,7.846-19.83,19.092h-1.19v-22.2H1373v150.96Zm233.24,4.736q23.685,0,40.41-10.656a76.035,76.035,0,0,0,26.49-29.008l-21.31-10.36q-15.69,27.237-44.7,27.232a50.991,50.991,0,0,1-23.83-5.92,48.222,48.222,0,0,1-18.79-17.76q-7.41-11.835-8.29-29.008h119.29a29.539,29.539,0,0,0,.89-7.7q0-22.491-8.74-39.96a65.854,65.854,0,0,0-25.01-27.38q-16.275-9.914-38.48-9.916-21.9,0-38.48,10.952a73.015,73.015,0,0,0-25.6,29.3,89.942,89.942,0,0,0-9.03,40.256q0,22.8,9.62,41a71.822,71.822,0,0,0,26.79,28.564q17.16,10.358,38.77,10.36h0Zm-48.54-96.2q3.84-18.648,16.13-30.044t30.05-11.4q15.375,0,25.6,6.512a40.5,40.5,0,0,1,14.95,15.984,49.248,49.248,0,0,1,5.33,18.944H1557.7Zm206.01,93.832a63.292,63.292,0,0,0,11.69-.888,38.594,38.594,0,0,0,9.03-2.96V215.038a30.655,30.655,0,0,1-16.57,5.032q-10.665,0-16.28-6.512-4.74-5.917-4.74-18.352V112.918h36.7V90.126h-36.7V47.5h-25.16V90.126h-26.34v22.792h26.34v88.5q0,10.656,2.96,18.056a36.353,36.353,0,0,0,8.88,13.024,38.776,38.776,0,0,0,13.17,7.992,47.889,47.889,0,0,0,17.02,2.96h0Z" style="stroke: inherit; filter: none; fill: inherit"/>
  </g>
  <use xlink:href="#logo-path-stroke" style="stroke: #a1570f; filter: none; fill: url(#linear-gradient)"/>
</svg>
